<svg width="78" height="17" viewBox="0 0 78 17" fill="none" xmlns="http://www.w3.org/2000/svg">
<path d="M0 16.5V3.95115H1.39834V5.13001C1.72803 4.66871 2.10035 4.32417 2.5153 4.09637C2.93026 3.86288 3.43332 3.74613 4.02449 3.74613C4.79755 3.74613 5.47967 3.94545 6.07084 4.3441C6.662 4.74275 7.10822 5.30655 7.40949 6.0355C7.71076 6.75877 7.86139 7.55321 7.86139 8.41885C7.86139 9.34713 7.6937 10.1843 7.35833 10.9303C7.02864 11.6707 6.54547 12.2402 5.90883 12.6388C5.27787 13.0318 4.61281 13.2282 3.91364 13.2282C3.40206 13.2282 2.94163 13.12 2.53236 12.9036C2.12877 12.6872 1.79624 12.4139 1.53476 12.0836V16.5H0ZM1.38981 8.53844C1.38981 9.70591 1.62571 10.5687 2.09751 11.1268C2.5693 11.6849 3.14058 11.964 3.81132 11.964C4.49344 11.964 5.07608 11.6764 5.55925 11.1012C6.0481 10.5203 6.29252 9.62333 6.29252 8.4103C6.29252 7.25423 6.05378 6.38859 5.5763 5.8134C5.1045 5.23821 4.53892 4.95061 3.87954 4.95061C3.22584 4.95061 2.64604 5.25814 2.14014 5.8732C1.63992 6.48256 1.38981 7.37097 1.38981 8.53844Z" fill="#02170E"/>
<path d="M9.72868 2.26829V0.5H11.2634V2.26829H9.72868ZM9.72868 13.0232V3.95115H11.2634V13.0232H9.72868Z" fill="#02170E"/>
<path d="M13.6082 13.0232V3.95115H14.9895V5.24106C15.6546 4.24444 16.6152 3.74613 17.8714 3.74613C18.4171 3.74613 18.9174 3.84579 19.3721 4.04511C19.8325 4.23874 20.1764 4.49502 20.4038 4.81393C20.6312 5.13285 20.7903 5.51157 20.8813 5.95008C20.9381 6.23483 20.9665 6.73314 20.9665 7.44501V13.0232H19.4318V7.50481C19.4318 6.87836 19.3721 6.41137 19.2527 6.10384C19.1334 5.79062 18.9202 5.54289 18.6132 5.36065C18.312 5.17272 17.9567 5.07875 17.5474 5.07875C16.8937 5.07875 16.3282 5.28662 15.8507 5.70235C15.3789 6.11808 15.143 6.90683 15.143 8.06861V13.0232H13.6082Z" fill="#02170E"/>
<path d="M29.5271 10.1017L31.113 10.2982C30.8629 11.2265 30.3997 11.9469 29.7232 12.4594C29.0468 12.972 28.1828 13.2282 27.1312 13.2282C25.8067 13.2282 24.7551 12.8211 23.9764 12.0067C23.2033 11.1866 22.8168 10.0391 22.8168 8.56407C22.8168 7.03782 23.209 5.85327 23.9934 5.01041C24.7779 4.16756 25.7954 3.74613 27.0459 3.74613C28.2567 3.74613 29.2457 4.15901 30.0131 4.98478C30.7805 5.81055 31.1642 6.97233 31.1642 8.4701C31.1642 8.56122 31.1613 8.6979 31.1557 8.88014H24.4027C24.4596 9.87676 24.7409 10.6399 25.2468 11.1695C25.7527 11.6991 26.3837 11.964 27.1397 11.964C27.7024 11.964 28.1828 11.8159 28.5807 11.5198C28.9786 11.2236 29.2941 10.7509 29.5271 10.1017ZM24.488 7.61586H29.5442C29.476 6.85273 29.2827 6.28039 28.9644 5.89883C28.4755 5.30655 27.8417 5.01041 27.063 5.01041C26.3581 5.01041 25.7641 5.24675 25.2809 5.71943C24.8035 6.19212 24.5391 6.82426 24.488 7.61586Z" fill="#02170E"/>
<path d="M38.9574 11.9042C38.3889 12.3882 37.8404 12.7299 37.3118 12.9293C36.7888 13.1286 36.2261 13.2282 35.6235 13.2282C34.6288 13.2282 33.8642 12.9862 33.3299 12.5021C32.7956 12.0124 32.5284 11.3888 32.5284 10.6313C32.5284 10.1871 32.6279 9.78279 32.8268 9.41831C33.0315 9.04814 33.2958 8.752 33.6198 8.5299C33.9495 8.3078 34.319 8.13979 34.7282 8.02589C35.0295 7.94617 35.4843 7.86928 36.0925 7.79525C37.3317 7.64718 38.244 7.47064 38.8295 7.26562C38.8352 7.0549 38.838 6.92107 38.838 6.86412C38.838 6.23768 38.693 5.79632 38.4031 5.54004C38.0109 5.19265 37.4283 5.01895 36.6552 5.01895C35.9333 5.01895 35.399 5.14709 35.0522 5.40336C34.7112 5.65394 34.4582 6.101 34.2934 6.74453L32.7927 6.53951C32.9292 5.89598 33.1537 5.37774 33.4663 4.98478C33.779 4.58614 34.2309 4.28146 34.822 4.07074C35.4132 3.85433 36.0982 3.74613 36.8769 3.74613C37.65 3.74613 38.2781 3.83725 38.7613 4.01949C39.2444 4.20173 39.5997 4.43237 39.8271 4.71143C40.0544 4.98478 40.2136 5.33218 40.3045 5.7536C40.3557 6.01557 40.3813 6.48825 40.3813 7.17165V9.22184C40.3813 10.6513 40.4125 11.5568 40.4751 11.9383C40.5433 12.3142 40.674 12.6758 40.8673 13.0232H39.2643C39.1052 12.7043 39.0028 12.3313 38.9574 11.9042ZM38.8295 8.4701C38.2724 8.6979 37.4368 8.89153 36.3227 9.05099C35.6917 9.14211 35.2455 9.24462 34.984 9.35852C34.7226 9.47241 34.5208 9.64042 34.3787 9.86252C34.2366 10.0789 34.1655 10.321 34.1655 10.5886C34.1655 10.9987 34.319 11.3404 34.6259 11.6137C34.9386 11.8871 35.3933 12.0238 35.9902 12.0238C36.5813 12.0238 37.1071 11.8956 37.5676 11.6393C38.028 11.3774 38.3662 11.0214 38.5822 10.5715C38.747 10.2242 38.8295 9.7116 38.8295 9.0339V8.4701Z" fill="#02170E"/>
<path d="M42.7687 16.5V3.95115H44.167V5.13001C44.4967 4.66871 44.869 4.32417 45.284 4.09637C45.699 3.86288 46.202 3.74613 46.7932 3.74613C47.5662 3.74613 48.2484 3.94545 48.8395 4.3441C49.4307 4.74275 49.8769 5.30655 50.1782 6.0355C50.4795 6.75877 50.6301 7.55321 50.6301 8.41885C50.6301 9.34713 50.4624 10.1843 50.127 10.9303C49.7973 11.6707 49.3142 12.2402 48.6775 12.6388C48.0466 13.0318 47.3815 13.2282 46.6823 13.2282C46.1707 13.2282 45.7103 13.12 45.301 12.9036C44.8975 12.6872 44.5649 12.4139 44.3035 12.0836V16.5H42.7687ZM44.1585 8.53844C44.1585 9.70591 44.3944 10.5687 44.8662 11.1268C45.338 11.6849 45.9093 11.964 46.58 11.964C47.2621 11.964 47.8448 11.6764 48.3279 11.1012C48.8168 10.5203 49.0612 9.62333 49.0612 8.4103C49.0612 7.25423 48.8225 6.38859 48.345 5.8134C47.8732 5.23821 47.3076 4.95061 46.6482 4.95061C45.9945 4.95061 45.4147 5.25814 44.9088 5.8732C44.4086 6.48256 44.1585 7.37097 44.1585 8.53844Z" fill="#02170E"/>
<path d="M52.4888 16.5V3.95115H53.8872V5.13001C54.2169 4.66871 54.5892 4.32417 55.0042 4.09637C55.4191 3.86288 55.9222 3.74613 56.5133 3.74613C57.2864 3.74613 57.9685 3.94545 58.5597 4.3441C59.1509 4.74275 59.5971 5.30655 59.8983 6.0355C60.1996 6.75877 60.3502 7.55321 60.3502 8.41885C60.3502 9.34713 60.1826 10.1843 59.8472 10.9303C59.5175 11.6707 59.0343 12.2402 58.3977 12.6388C57.7667 13.0318 57.1017 13.2282 56.4025 13.2282C55.8909 13.2282 55.4305 13.12 55.0212 12.9036C54.6176 12.6872 54.2851 12.4139 54.0236 12.0836V16.5H52.4888ZM53.8787 8.53844C53.8787 9.70591 54.1146 10.5687 54.5864 11.1268C55.0582 11.6849 55.6294 11.964 56.3002 11.964C56.9823 11.964 57.5649 11.6764 58.0481 11.1012C58.5369 10.5203 58.7814 9.62333 58.7814 8.4103C58.7814 7.25423 58.5426 6.38859 58.0652 5.8134C57.5934 5.23821 57.0278 4.95061 56.3684 4.95061C55.7147 4.95061 55.1349 5.25814 54.629 5.8732C54.1288 6.48256 53.8787 7.37097 53.8787 8.53844Z" fill="#02170E"/>
<path d="M62.1749 13.0232V0.5H63.7097V13.0232H62.1749Z" fill="#02170E"/>
<path d="M72.2958 10.1017L73.8817 10.2982C73.6316 11.2265 73.1683 11.9469 72.4919 12.4594C71.8155 12.972 70.9515 13.2282 69.8999 13.2282C68.5754 13.2282 67.5238 12.8211 66.7451 12.0067C65.972 11.1866 65.5855 10.0391 65.5855 8.56407C65.5855 7.03782 65.9777 5.85327 66.7621 5.01041C67.5466 4.16756 68.5641 3.74613 69.8146 3.74613C71.0254 3.74613 72.0144 4.15901 72.7818 4.98478C73.5492 5.81055 73.9329 6.97233 73.9329 8.4701C73.9329 8.56122 73.93 8.6979 73.9244 8.88014H67.1714C67.2282 9.87676 67.5096 10.6399 68.0155 11.1695C68.5214 11.6991 69.1524 11.964 69.9084 11.964C70.4711 11.964 70.9515 11.8159 71.3494 11.5198C71.7473 11.2236 72.0627 10.7509 72.2958 10.1017ZM67.2567 7.61586H72.3129C72.2446 6.85273 72.0514 6.28039 71.7331 5.89883C71.2442 5.30655 70.6104 5.01041 69.8317 5.01041C69.1268 5.01041 68.5328 5.24675 68.0496 5.71943C67.5721 6.19212 67.3078 6.82426 67.2567 7.61586Z" fill="#02170E"/>
<path d="M76.2521 13.0232V11.272H78V13.0232H76.2521Z" fill="#02170E"/>
</svg>
