<?xml version="1.0" encoding="utf-8"?>
<!-- Generator: Adobe Illustrator 28.1.0, SVG Export Plug-In . SVG Version: 6.00 Build 0)  -->
<svg version="1.1" id="Layer_1" xmlns="http://www.w3.org/2000/svg" xmlns:xlink="http://www.w3.org/1999/xlink" x="0px" y="0px"
	 viewBox="0 0 118 41" style="enable-background:new 0 0 118 41;" xml:space="preserve">
<style type="text/css">
	.st0{fill:none;stroke:#0F8352;}
	.st1{fill:#02170E;}
</style>
<path class="st0" d="M5.2,14l-4-4.8L5.9,10l0.7,0.1L6.5,9.4L5.7,3.9l3.9,3.9l0.6,0.6l0.2-0.8L12,2.3l1.5,5.3l0.2,0.8l0.6-0.6
	l3.9-3.9l-0.8,5.5l-0.1,0.7l0.7-0.1l4.7-0.8l-4,4.8H5.2z M23.5,35.3L18.8,40H5.2l-4.7-4.7V21.7L5.2,17h13.6l4.7,4.7V35.3z"/>
<path class="st1" d="M40,36.5V24h1.4v1.2c0.3-0.5,0.7-0.8,1.1-1c0.4-0.2,0.9-0.4,1.5-0.4c0.8,0,1.5,0.2,2,0.6c0.6,0.4,1,1,1.3,1.7
	c0.3,0.7,0.5,1.5,0.5,2.4c0,0.9-0.2,1.8-0.5,2.5c-0.3,0.7-0.8,1.3-1.4,1.7c-0.6,0.4-1.3,0.6-2,0.6c-0.5,0-1-0.1-1.4-0.3
	c-0.4-0.2-0.7-0.5-1-0.8v4.4H40z M41.4,28.5c0,1.2,0.2,2,0.7,2.6c0.5,0.6,1,0.8,1.7,0.8c0.7,0,1.3-0.3,1.7-0.9
	c0.5-0.6,0.7-1.5,0.7-2.7c0-1.2-0.2-2-0.7-2.6c-0.5-0.6-1-0.9-1.7-0.9c-0.7,0-1.2,0.3-1.7,0.9C41.6,26.5,41.4,27.4,41.4,28.5z"/>
<path class="st1" d="M49.7,22.3v-1.8h1.5v1.8H49.7z M49.7,33V24h1.5V33H49.7z"/>
<path class="st1" d="M53.6,33V24H55v1.3c0.7-1,1.6-1.5,2.9-1.5c0.5,0,1,0.1,1.5,0.3c0.5,0.2,0.8,0.4,1,0.8c0.2,0.3,0.4,0.7,0.5,1.1
	c0.1,0.3,0.1,0.8,0.1,1.5V33h-1.5v-5.5c0-0.6-0.1-1.1-0.2-1.4c-0.1-0.3-0.3-0.6-0.6-0.7c-0.3-0.2-0.7-0.3-1.1-0.3
	c-0.7,0-1.2,0.2-1.7,0.6c-0.5,0.4-0.7,1.2-0.7,2.4v5H53.6z"/>
<path class="st1" d="M69.5,30.1l1.6,0.2c-0.3,0.9-0.7,1.6-1.4,2.2c-0.7,0.5-1.5,0.8-2.6,0.8c-1.3,0-2.4-0.4-3.2-1.2
	c-0.8-0.8-1.2-2-1.2-3.4c0-1.5,0.4-2.7,1.2-3.6c0.8-0.8,1.8-1.3,3.1-1.3c1.2,0,2.2,0.4,3,1.2s1.2,2,1.2,3.5c0,0.1,0,0.2,0,0.4h-6.8
	c0.1,1,0.3,1.8,0.8,2.3c0.5,0.5,1.1,0.8,1.9,0.8c0.6,0,1-0.1,1.4-0.4C69,31.2,69.3,30.8,69.5,30.1z M64.5,27.6h5.1
	c-0.1-0.8-0.3-1.3-0.6-1.7c-0.5-0.6-1.1-0.9-1.9-0.9c-0.7,0-1.3,0.2-1.8,0.7C64.8,26.2,64.5,26.8,64.5,27.6z"/>
<path class="st1" d="M79,31.9c-0.6,0.5-1.1,0.8-1.6,1c-0.5,0.2-1.1,0.3-1.7,0.3c-1,0-1.8-0.2-2.3-0.7c-0.5-0.5-0.8-1.1-0.8-1.9
	c0-0.4,0.1-0.8,0.3-1.2c0.2-0.4,0.5-0.7,0.8-0.9c0.3-0.2,0.7-0.4,1.1-0.5c0.3-0.1,0.8-0.2,1.4-0.2c1.2-0.1,2.2-0.3,2.7-0.5
	c0-0.2,0-0.3,0-0.4c0-0.6-0.1-1.1-0.4-1.3c-0.4-0.3-1-0.5-1.7-0.5c-0.7,0-1.3,0.1-1.6,0.4c-0.3,0.3-0.6,0.7-0.8,1.3l-1.5-0.2
	c0.1-0.6,0.4-1.2,0.7-1.6c0.3-0.4,0.8-0.7,1.4-0.9c0.6-0.2,1.3-0.3,2.1-0.3c0.8,0,1.4,0.1,1.9,0.3c0.5,0.2,0.8,0.4,1.1,0.7
	c0.2,0.3,0.4,0.6,0.5,1c0.1,0.3,0.1,0.7,0.1,1.4v2.1c0,1.4,0,2.3,0.1,2.7c0.1,0.4,0.2,0.7,0.4,1.1h-1.6C79.1,32.7,79,32.3,79,31.9z
	 M78.8,28.5c-0.6,0.2-1.4,0.4-2.5,0.6c-0.6,0.1-1.1,0.2-1.3,0.3c-0.3,0.1-0.5,0.3-0.6,0.5c-0.1,0.2-0.2,0.5-0.2,0.7
	c0,0.4,0.2,0.8,0.5,1c0.3,0.3,0.8,0.4,1.4,0.4c0.6,0,1.1-0.1,1.6-0.4c0.5-0.3,0.8-0.6,1-1.1c0.2-0.3,0.2-0.9,0.2-1.5V28.5z"/>
<path class="st1" d="M82.8,36.5V24h1.4v1.2c0.3-0.5,0.7-0.8,1.1-1c0.4-0.2,0.9-0.4,1.5-0.4c0.8,0,1.5,0.2,2,0.6c0.6,0.4,1,1,1.3,1.7
	c0.3,0.7,0.5,1.5,0.5,2.4c0,0.9-0.2,1.8-0.5,2.5c-0.3,0.7-0.8,1.3-1.4,1.7c-0.6,0.4-1.3,0.6-2,0.6c-0.5,0-1-0.1-1.4-0.3
	c-0.4-0.2-0.7-0.5-1-0.8v4.4H82.8z M84.2,28.5c0,1.2,0.2,2,0.7,2.6c0.5,0.6,1,0.8,1.7,0.8c0.7,0,1.3-0.3,1.7-0.9
	c0.5-0.6,0.7-1.5,0.7-2.7c0-1.2-0.2-2-0.7-2.6c-0.5-0.6-1-0.9-1.7-0.9c-0.7,0-1.2,0.3-1.7,0.9C84.4,26.5,84.2,27.4,84.2,28.5z"/>
<path class="st1" d="M92.5,36.5V24h1.4v1.2c0.3-0.5,0.7-0.8,1.1-1c0.4-0.2,0.9-0.4,1.5-0.4c0.8,0,1.5,0.2,2,0.6c0.6,0.4,1,1,1.3,1.7
	c0.3,0.7,0.5,1.5,0.5,2.4c0,0.9-0.2,1.8-0.5,2.5c-0.3,0.7-0.8,1.3-1.4,1.7c-0.6,0.4-1.3,0.6-2,0.6c-0.5,0-1-0.1-1.4-0.3
	c-0.4-0.2-0.7-0.5-1-0.8v4.4H92.5z M93.9,28.5c0,1.2,0.2,2,0.7,2.6c0.5,0.6,1,0.8,1.7,0.8c0.7,0,1.3-0.3,1.7-0.9
	c0.5-0.6,0.7-1.5,0.7-2.7c0-1.2-0.2-2-0.7-2.6c-0.5-0.6-1-0.9-1.7-0.9c-0.7,0-1.2,0.3-1.7,0.9C94.1,26.5,93.9,27.4,93.9,28.5z"/>
<path class="st1" d="M102.2,33V20.5h1.5V33H102.2z"/>
<path class="st1" d="M112.3,30.1l1.6,0.2c-0.2,0.9-0.7,1.6-1.4,2.2c-0.7,0.5-1.5,0.8-2.6,0.8c-1.3,0-2.4-0.4-3.2-1.2
	c-0.8-0.8-1.2-2-1.2-3.4c0-1.5,0.4-2.7,1.2-3.6c0.8-0.8,1.8-1.3,3.1-1.3c1.2,0,2.2,0.4,3,1.2c0.8,0.8,1.2,2,1.2,3.5
	c0,0.1,0,0.2,0,0.4h-6.8c0.1,1,0.3,1.8,0.8,2.3c0.5,0.5,1.1,0.8,1.9,0.8c0.6,0,1-0.1,1.4-0.4C111.7,31.2,112.1,30.8,112.3,30.1z
	 M107.3,27.6h5.1c-0.1-0.8-0.3-1.3-0.6-1.7c-0.5-0.6-1.1-0.9-1.9-0.9c-0.7,0-1.3,0.2-1.8,0.7C107.6,26.2,107.3,26.8,107.3,27.6z"/>
<path class="st1" d="M116.3,33v-1.8h1.7V33H116.3z"/>
<line class="st0" x1="5.2" y1="17" x2="23.5" y2="35.3"/>
<line class="st0" x1="0.5" y1="21.7" x2="18.8" y2="40"/>
<line class="st0" x1="18.8" y1="17" x2="0.5" y2="35.3"/>
<line class="st0" x1="23.5" y1="21.7" x2="5.2" y2="40"/>
</svg>
